<svg width="17" height="16" viewBox="0 0 17 16" fill="none" xmlns="http://www.w3.org/2000/svg">
<path fill-rule="evenodd" clip-rule="evenodd" d="M12.1191 3.61907C12.1191 5.61783 10.4988 7.23815 8.50002 7.23815C6.50127 7.23815 4.88095 5.61783 4.88095 3.61907C4.88095 1.62031 6.50127 0 8.50002 0C10.4988 0 12.1191 1.62031 12.1191 3.61907ZM10.9127 3.61907C10.9127 4.95158 9.83253 6.03179 8.50002 6.03179C7.16752 6.03179 6.08731 4.95158 6.08731 3.61907C6.08731 2.28657 7.16752 1.20636 8.50002 1.20636C9.83253 1.20636 10.9127 2.28657 10.9127 3.61907Z" fill="#412D00"/>
<path d="M8.50003 9.04769C4.59481 9.04769 1.26747 11.3569 0 14.5921C0.308764 14.8987 0.634025 15.1888 0.974332 15.4607C1.91815 12.4904 4.87897 10.254 8.50003 10.254C12.1211 10.254 15.0819 12.4905 16.0257 15.4607C16.366 15.1888 16.6913 14.8987 17.0001 14.5921C15.7326 11.3569 12.4052 9.04769 8.50003 9.04769Z" fill="#412D00"/>
</svg>
