<svg width="6" height="6" viewBox="0 0 6 6" fill="none" xmlns="http://www.w3.org/2000/svg">
<path fill-rule="evenodd" clip-rule="evenodd" d="M1.80029 0.900135C1.80029 1.39731 1.39732 1.80027 0.900144 1.80027C0.402965 1.80027 0 1.39731 0 0.900135C0 0.402961 0.402965 0 0.900144 0C1.39732 0 1.80029 0.402961 1.80029 0.900135ZM2.99974 5.1969C2.04671 5.1969 1.13809 4.78773 0.506635 4.07379C0.31465 3.85661 0.335049 3.52514 0.551932 3.33286C0.769115 3.14087 1.10089 3.16097 1.29317 3.37845C1.72514 3.86651 2.34729 4.14699 2.99974 4.14699C3.65219 4.14699 4.27434 3.86651 4.7063 3.37845C4.89859 3.16037 5.23066 3.14087 5.44755 3.33286C5.66443 3.52514 5.68483 3.85661 5.49284 4.07379C4.86139 4.78773 3.95276 5.1969 2.99974 5.1969ZM5.09999 1.80029C5.59716 1.80029 6.00012 1.39732 6.00012 0.900144C6.00012 0.402965 5.59716 0 5.09999 0C4.60281 0 4.19985 0.402965 4.19985 0.900144C4.19985 1.39732 4.60281 1.80029 5.09999 1.80029Z" fill="#4E4639"/>
</svg>
