<svg width="154" height="46" viewBox="0 0 154 46" fill="none" xmlns="http://www.w3.org/2000/svg">
<path fill-rule="evenodd" clip-rule="evenodd" d="M0 6C0 2.68629 2.68629 0 6 0H148C151.314 0 154 2.68629 154 6V40C154 43.3137 151.314 46 148 46H99.9165H6C2.68629 46 0 43.3137 0 40V6Z" fill="#1E1B16"/>
<path fill-rule="evenodd" clip-rule="evenodd" d="M0 6C0 2.68629 2.68629 0 6 0H148C151.314 0 154 2.68629 154 6V40C154 43.3137 151.314 46 148 46H99.9165H6C2.68629 46 0 43.3137 0 40V6Z" fill="#F9BD3F" fill-opacity="0.05"/>
</svg>
