<svg width="46" height="15" viewBox="0 0 46 15" fill="none" xmlns="http://www.w3.org/2000/svg">
<path opacity="0.1" d="M8.5 0.416656C5.1 0.416656 2.125 1.90416 0 4.24166L8.5 14.5833L17 4.24166C14.875 1.90416 11.9 0.416656 8.5 0.416656Z" fill="#1F1F1F"/>
<path d="M31.5832 0.416656L17.4165 14.5833H31.5832V0.416656Z" fill="#1F1F1F"/>
<path d="M43.5 0H40.5V1.5H39C38.4477 1.5 38 2.00368 38 2.625V13.875C38 14.4963 38.4477 15 39 15H45C45.5523 15 46 14.4963 46 13.875V2.625C46 2.00368 45.5523 1.5 45 1.5H43.5V0Z" fill="#1F1F1F" fill-opacity="0.3"/>
<path d="M38 8C38 8.58333 38 13.3667 38 13.95C38 14.5299 38.4477 15 39 15H45C45.5523 15 46 14.5299 46 13.95C46 13.3667 46 8.58333 46 8H38Z" fill="#1F1F1F"/>
</svg>
