<svg width="18" height="18" viewBox="0 0 18 18" fill="none" xmlns="http://www.w3.org/2000/svg">
<mask id="mask0_50994_15225" style="mask-type:alpha" maskUnits="userSpaceOnUse" x="0" y="0" width="18" height="18">
<path d="M2.5 9C2.5 5.41015 5.41015 2.5 9 2.5C12.5899 2.5 15.5 5.41015 15.5 9C15.5 12.5899 12.5899 15.5 9 15.5C5.41015 15.5 2.5 12.5899 2.5 9Z" stroke="#09ADEA" stroke-width="5"/>
</mask>
<g mask="url(#mask0_50994_15225)">
<path d="M0 12L9.50002 10.5L18 11.5L18 15L9.00002 17L0 15V12Z" fill="#F5A61D"/>
<path d="M3.79704e-07 2.99998C3.79704e-07 2.99998 5.00002 4.00006 8.50002 2.50002C12 0.999972 18 2.99998 18 2.99998V5.99998C18 5.99998 12.5 7.50004 9 5.99998C5.5 4.49992 4.5 7.00004 3.79704e-07 5.99998C-4.7463e-07 5.00004 3.79704e-07 2.99998 3.79704e-07 2.99998Z" fill="#8F3A98"/>
<path d="M1.56983e-07 6.00003C7 4.00004 18 6.00003 18 6.00003V9.00003C18 9.00003 12.5 10.5001 9 9.00003C5.5 7.49999 1.56983e-07 9.00003 1.56983e-07 9.00003C1.56983e-07 9.00003 -1.96229e-07 6.99998 1.56983e-07 6.00003Z" fill="#E6359F"/>
<path d="M0 8.99998C0.736915 7.28052 7.67312 5.33004 9.33657 7.66498C11 9.99992 18 8.99998 18 8.99998C18 8.99998 18 10.9999 18 12C11.9845 10.6632 7.50001 10.4999 5.76495 11.559C4.02989 12.618 2.33101 12 0 12C0 12 1.52588e-05 9.99994 0 8.99998Z" fill="#F15E2B"/>
<path d="M0 15C1.11719 11.4622 7.50002 16.5 9.50002 15C11.5 13.5 18 15 18 15V18H0C0 18 1.49541e-05 16 0 15Z" fill="#FFDC5F"/>
<path d="M0 0H18V3C18 3 9.5 2.5 7 3.5C4.5 4.5 0 3 0 3V0Z" fill="#09ADEA"/>
<path fill-rule="evenodd" clip-rule="evenodd" d="M9 0H0V9V18H9H18V9V0H9ZM9 0C13.9706 0 18 4.02944 18 9C18 13.9706 13.9706 18 9 18C4.02944 18 0 13.9706 0 9C0 4.02944 4.02944 0 9 0Z" fill="#C4C4C4"/>
</g>
</svg>
