<svg width="119" height="40" viewBox="0 0 119 40" fill="none" xmlns="http://www.w3.org/2000/svg">
<g clip-path="url(#clip0_52722_24552)">
<path d="M0 26.18V26.1025C0 18.6838 5.67066 12.3963 13.6462 12.3963C17.6158 12.3963 20.2601 13.3438 22.6789 15.0863C23.1336 15.4275 23.6246 16.07 23.6246 16.9788C23.6246 18.2288 22.605 19.2887 21.3198 19.2887C20.7148 19.2887 20.2613 19.025 19.883 18.7575C18.1819 17.51 16.3306 16.675 13.457 16.675C8.58178 16.675 4.87649 20.955 4.87649 26.0275V26.1025C4.87649 31.5563 8.46779 35.5687 13.8729 35.5687C16.3681 35.5687 18.6354 34.7738 20.2613 33.5625V28.6038H15.0441C13.9105 28.6038 12.966 27.7313 12.966 26.5963C12.966 25.46 13.9105 24.5513 15.0454 24.5513H22.4171C23.7386 24.5513 24.7595 25.5725 24.7595 26.9V33.9788C24.7595 35.3038 24.2309 36.2512 23.1336 36.9325C20.8651 38.4475 17.6897 39.81 13.7226 39.81C5.44268 39.81 0 33.9038 0 26.18ZM28.927 13.7987C28.924 13.5003 28.9805 13.2043 29.0933 12.9279C29.2061 12.6515 29.3728 12.4002 29.5838 12.1887C29.7948 11.9772 30.0458 11.8098 30.3223 11.696C30.5988 11.5823 30.8952 11.5246 31.1943 11.5262C32.4795 11.5262 33.5016 12.5487 33.5016 13.7987V37.2738C33.5016 38.5613 32.4795 39.545 31.1955 39.545C30.8965 39.5468 30.6 39.4893 30.3235 39.3757C30.0469 39.2621 29.7958 39.0948 29.5847 38.8834C29.3736 38.672 29.2067 38.4209 29.0938 38.1445C28.9809 37.8682 28.9242 37.5722 28.927 37.2738V13.7987ZM53.7504 29.4738V29.3988C53.7504 25.8762 51.2188 22.9613 47.6276 22.9613C43.9611 22.9613 41.6174 25.8388 41.6174 29.3225V29.3975C41.6174 32.8813 44.1503 35.7962 47.7027 35.7962C51.4067 35.7962 53.7504 32.9188 53.7504 29.4738ZM37.0441 29.4738V29.3988C37.0441 23.68 41.5786 18.9475 47.704 18.9475C53.8268 18.9475 58.325 23.6038 58.325 29.3225V29.3975C58.325 35.0775 53.7892 39.81 47.6276 39.81C41.5398 39.81 37.0441 35.1538 37.0441 29.4738ZM69.744 39.735H69.5185C68.2697 39.735 67.4379 38.9387 66.9093 37.7262L60.2578 22.4688C60.1426 22.1275 59.9923 21.75 59.9923 21.3337C59.9923 20.1962 61.0132 19.1375 62.2595 19.1375C63.5072 19.1375 64.151 19.855 64.5281 20.8038L69.6689 34.0537L74.8848 20.7288C75.2243 19.9338 75.8306 19.1375 77.0393 19.1375C78.287 19.1375 79.269 20.0837 79.269 21.3337C79.269 21.75 79.1187 22.205 79.006 22.4313L72.352 37.725C71.8221 38.9 70.9904 39.7337 69.7428 39.7337M97.6439 29.4738V29.3988C97.6439 25.8762 95.1136 22.9613 91.521 22.9613C87.8546 22.9613 85.5109 25.8388 85.5109 29.3225V29.3975C85.5109 32.8813 88.0437 35.7962 91.5987 35.7962C95.3002 35.7962 97.6439 32.9188 97.6439 29.4738ZM80.9375 29.4738V29.3988C80.9375 23.68 85.4733 18.9475 91.5974 18.9475C97.7203 18.9475 102.218 23.6038 102.218 29.3225V29.3975C102.218 35.0775 97.684 39.81 91.521 39.81C85.4357 39.81 80.9375 35.1538 80.9375 29.4738Z" fill="white"/>
<path d="M113.565 12.4513L113.314 12.8013L109.868 17.6725L106.426 12.81L106.174 12.4575C105.683 11.7774 105.389 10.9752 105.325 10.1393C105.261 9.30336 105.429 8.46595 105.811 7.71912C106.193 6.97229 106.773 6.34495 107.489 5.90604C108.205 5.46713 109.028 5.23365 109.868 5.23125C110.707 5.23513 111.529 5.46922 112.243 5.90791C112.958 6.3466 113.537 6.97298 113.919 7.71847C114.3 8.46397 114.469 9.29984 114.406 10.1346C114.344 10.9694 114.052 11.7708 113.564 12.4513M109.87 0.798752C104.914 0.798752 100.887 4.83625 100.887 9.7975C100.887 11.6863 101.473 13.5 102.579 15.0413L102.817 15.3738L107.496 21.9838C107.496 21.9838 108.066 22.9175 109.31 22.9175H110.427C111.673 22.9175 112.241 21.9838 112.241 21.9838L116.916 15.3725L117.154 15.04C118.257 13.5135 118.85 11.6785 118.847 9.79625C118.847 4.835 114.817 0.798752 109.866 0.798752M107.341 26.975V26.9575C107.341 25.6125 108.407 24.5 109.846 24.5C111.286 24.5 112.344 25.595 112.344 26.94V26.9575C112.344 28.2913 111.276 29.4038 109.828 29.4038C108.4 29.4038 107.341 28.31 107.341 26.975Z" fill="#FFC244"/>
</g>
<defs>
<clipPath id="clip0_52722_24552">
<rect width="119" height="40" fill="white"/>
</clipPath>
</defs>
</svg>
